<mxfile host="app.diagrams.net" modified="2024-01-11T11:31:34.866Z" agent="Mozilla/5.0 (Windows NT 10.0; Win64; x64) AppleWebKit/537.36 (KHTML, like Gecko) Chrome/120.0.0.0 Safari/537.36" etag="Y_rr8IjBzNVcs3SPd0wB" version="22.1.18" type="github">
  <diagram name="Page-1" id="ZPTlXOk6UU-GweHPPE-C">
    <mxGraphModel dx="1050" dy="557" grid="1" gridSize="10" guides="1" tooltips="1" connect="1" arrows="1" fold="1" page="1" pageScale="1" pageWidth="850" pageHeight="1100" math="0" shadow="0">
      <root>
        <mxCell id="0" />
        <mxCell id="1" parent="0" />
        <mxCell id="_TBH8grfphFG0vw2uRV1-1" value="list all the checks you&amp;nbsp;&lt;br&gt;need to do &lt;b&gt;frequently&lt;br&gt;&lt;/b&gt;&lt;br&gt;(e.g. check if server response is &amp;lt;...&amp;gt; in postman, etc.)" style="rounded=0;whiteSpace=wrap;html=1;" vertex="1" parent="1">
          <mxGeometry x="40" y="80" width="720" height="100" as="geometry" />
        </mxCell>
        <mxCell id="_TBH8grfphFG0vw2uRV1-2" value="" style="rounded=0;whiteSpace=wrap;html=1;" vertex="1" parent="1">
          <mxGeometry x="40" y="300" width="720" height="60" as="geometry" />
        </mxCell>
        <mxCell id="_TBH8grfphFG0vw2uRV1-3" value="&lt;b&gt;go over the list, do everything you possibly can to make each one of those frequent checks easier&lt;/b&gt;&lt;br&gt;&lt;br&gt;Now, every time you need to make that check - which is very often - you save that much time" style="rounded=0;whiteSpace=wrap;html=1;" vertex="1" parent="1">
          <mxGeometry x="40" y="200" width="720" height="60" as="geometry" />
        </mxCell>
        <mxCell id="_TBH8grfphFG0vw2uRV1-4" value="&lt;b&gt;&lt;font style=&quot;font-size: 16px;&quot;&gt;STEPS&lt;/font&gt;&lt;/b&gt;" style="text;html=1;align=center;verticalAlign=middle;resizable=0;points=[];autosize=1;strokeColor=none;fillColor=none;" vertex="1" parent="1">
          <mxGeometry x="40" y="10" width="80" height="30" as="geometry" />
        </mxCell>
      </root>
    </mxGraphModel>
  </diagram>
</mxfile>
